# xmcd
#
# Track frame offsets:
#	150
#	8257
#	20505
#	36042
#	51160
#	72562
#	88392
#	110287
#	137335
#	152550
#	175002
#	199820
#
# Disc length: 2814 seconds
#
# Revision: 3
# Processed by: cddbd v1.5.2PL0 Copyright (c) Steve Scherf et al.
# Submitted via: EZCDAudioConverter 2.1.7.1
#
DISCID=920afc0c
DTITLE=V/A - Big Bad Love
DYEAR=2002
DGENRE=
TTITLE0=Kenny Brown - Boxcar Blues
TTITLE1=Asie Payton - I Love You
TTITLE2=R.L. Burnside - Come On In [Live]
TTITLE3=T-Model Ford - She Asked Me So I Told Her
TTITLE4=Robert Belfour - My Baby's Gone
TTITLE5=Tom Verlaine - Sleepwalkin'
TTITLE6=R.L. Burnside - Everything Is Broken
TTITLE7=Junior Kimbrough - Junior's Place
TTITLE8=Tom Waits - Long Way Home
TTITLE9=Steve Earle - Goodbye
TTITLE10=Tom Verlaine and Kronos Quartet - Spiritual
TTITLE11=Tom Waits - Jayne's Blue Wish
EXTD=
EXTT0=
EXTT1=
EXTT2=
EXTT3=
EXTT4=
EXTT5=
EXTT6=
EXTT7=
EXTT8=
EXTT9=
EXTT10=
EXTT11=
PLAYORDER=
